<?xml version="1.0" encoding="utf-8"?>
<!-- Generator: Adobe Illustrator 27.2.0, SVG Export Plug-In . SVG Version: 6.00 Build 0)  -->
<svg version="1.1" id="Layer_1" xmlns="http://www.w3.org/2000/svg" xmlns:xlink="http://www.w3.org/1999/xlink" x="0px" y="0px"
	 viewBox="0 0 20 20" style="enable-background:new 0 0 20 20;" xml:space="preserve">
<path class="st0" d="M12.29,0C9.07,0,6.31,2.55,5.15,6.18L0.87,0.74c-0.37-0.47-0.8,0.34-0.53,1l2.75,6.77l-3.01,9.54
	c-0.27,0.85,0.2,1.88,0.58,1.27l4.13-6.65c0.03,0.05,0.06,0.1,0.09,0.13C5.82,16.96,8.78,20,12.29,20C16.55,20,20,15.52,20,10
	S16.55,0,12.29,0z M16.57,9.28c-0.4,0-0.73-0.7-0.73-1.57c0-0.87,0.33-1.57,0.73-1.57c0.4,0,0.73,0.7,0.73,1.57
	C17.3,8.57,16.97,9.28,16.57,9.28z" fill="green">
	<animate attributeName="fill" values= "cyan; coral; pink; cyan" dur="5s" repeatCount="indefinite" /></path>
</svg>
