<?xml version="1.0" encoding="utf-8"?>
<!-- Generator: Adobe Illustrator 27.2.0, SVG Export Plug-In . SVG Version: 6.00 Build 0)  -->
<svg version="1.1" id="Layer_1" xmlns="http://www.w3.org/2000/svg" xmlns:xlink="http://www.w3.org/1999/xlink" x="0px" y="0px"
	 viewBox="0 0 20 20" style="enable-background:new 0 0 20 20;" xml:space="preserve">
<g>
	<ellipse cx="7.89" cy="2.23" rx="2.56" ry="2.23"/>
	<path d="M3.61,10.08l-0.1-0.54l0.74-3.87C4.34,5.23,3.98,4.8,3.44,4.73l-1.2-0.16C1.7,4.49,1.19,4.8,1.1,5.25l-0.77,4
		C0.33,9.31,0.32,9.37,0.33,9.42C0.1,9.51-0.03,9.71,0.01,9.92l0.12,0.63c0.05,0.25,0.33,0.42,0.62,0.38l2.41-0.32
		C3.46,10.57,3.66,10.34,3.61,10.08z"/>
	<path d="M19.79,18.97h-0.12c-0.03-0.13-0.23-0.25-0.54-0.33l-0.17-0.55c-0.04-0.11-0.13-0.2-0.24-0.25l0.07-0.02l-3-9.43
		c0.69-0.35,1.09-0.81,0.96-1.2c-0.13-0.39-0.74-0.61-1.54-0.62l-0.03-0.1c0.03-0.07,0.03-0.15,0.01-0.23L14.9,5.35
		c-0.07-0.22-0.34-0.35-0.6-0.29l-0.58,0.13c-0.26,0.06-0.42,0.28-0.35,0.5l0.28,0.89c0.02,0.07,0.06,0.13,0.12,0.17
		c-0.58,0.15-1.08,0.37-1.44,0.62C12.23,7.38,12.11,7.37,12,7.37c-0.16,0-0.32,0.01-0.48,0.02L9.91,5.83L9.84,5.88
		c-0.2-0.41-0.64-0.72-1.2-0.8L6.43,4.77C5.57,4.65,4.75,5.14,4.61,5.86l-0.98,4.98c-0.1,0.53,0.18,1.03,0.67,1.32
		c0,0.01-0.01,0.02-0.01,0.03c-0.02,0.14,0.05,0.28,0.2,0.42l-1.08,2.45l0.05,0.01l-1.91,3.89H1c-0.11,0-0.21,0.08-0.21,0.17v0.68
		C0.8,19.92,0.89,20,1,20h18.79c0.11,0,0.21-0.08,0.21-0.17v-0.68C20,19.05,19.91,18.97,19.79,18.97z M6.03,15.76l-0.05-0.02
		l0.98-2.22c0.24,0.04,0.5,0.08,0.76,0.1c0.67,0.07,1.3,0.08,1.85,0.04l0.67,1.57l-0.19,3.73H4.46L6.03,15.76z M17.43,18.44
		l0.05,0.14c-0.47,0.07-0.8,0.22-0.84,0.39h-4.36l0.2-3.98l-0.11,0l-0.93-2.18c-0.1-0.45-1.11-0.92-2.5-1.17
		c0-0.02,0.01-0.03,0.01-0.05l0.6-3.04C9.75,9.03,10.77,9.39,12,9.39c0.9,0,1.68-0.2,2.11-0.49c0.12-0.02,0.24-0.04,0.36-0.06
		l2.95,9.29l0.07-0.02C17.42,18.21,17.4,18.32,17.43,18.44z"/>
</g>
</svg>
