<?xml version="1.0" encoding="utf-8"?>
<!-- Generator: Adobe Illustrator 27.2.0, SVG Export Plug-In . SVG Version: 6.00 Build 0)  -->
<svg version="1.1" id="Layer_1" xmlns="http://www.w3.org/2000/svg" xmlns:xlink="http://www.w3.org/1999/xlink" x="0px" y="0px"
	 viewBox="0 0 22 22" style="enable-background:new 0 0 22 22;" xml:space="preserve">
<style type="text/css">
	.st0{fill:#20BDE7;}
</style>
<path class="st0" d="M21.97,12.72l0.03,0l-0.03-0.02c0.02-1.07,0.07-6.28-1.38-8.59c-1.96-3.12-4.91-4.65-9.97-3.93
	C9.5,0.33,8.9,0.58,8.66,0.89L8.64,0.87l0,0.06c-0.13,0.2-0.12,0.42,0,0.67L8.63,12.9l13.17-0.18c0.06,0.06,0.11,0.11,0.17,0.17
	C21.97,12.89,21.97,12.83,21.97,12.72z"/>
<path class="st0" d="M15.24,14.82h6.03c0,2.96-2.95,5.3-6.1,6.3c-6.99,2.22-6.06,0.27-5.96-6.3c0-0.04,0-0.08,0-0.12L15.24,14.82z"
	/>
<path class="st0" d="M4.1,17.09l0.07,2.39c-1.2,0.03-2.18-1.1-2.62-2.34C0.57,14.4-0.58,14.7,4.03,14.7c0.02,0,0.03,0,0.05,0
	L4.1,17.09z"/>
<path class="st0" d="M4.09,12.93c0.14,0-0.11-3.75-0.22-4.6C3.76,7.44,3.92,3.25,3.83,3.06c0,0-4.09,3.75-3.81,9.27
	C0.07,13.41,1.68,12.89,4.09,12.93z"/>
</svg>
